PathFileType	4	(X/Y/Z)	D:\TRACE\spotREDO_2-26-24\spot_Both_Motion_3_4-v60.trc
DataRate	CameraRate	NumFrames	NumMarkers	Units	OrigDataRate	OrigDataStartFrame	OrigNumFrames
100.00	100.00	      24	9	mm	100.00	1	      7000
Frame#	Time	front left toe			Front right toe			aft left toe			aft right toe			Arm			FL body			FR body			AL Body			AR Body			
		X1	Y1	Z1	X2	Y2	Z2	X3	Y3	Z3	X4	Y4	Z4	X5	Y5	Z5	X6	Y6	Z6	X7	Y7	Z7	X8	Y8	Z8	X9	Y9	Z9	

1	0.000	-244.62773	154.44131	-80.79078	213.17403	58.92018	-168.10445	-252.07292	-52.42087	461.93143	240.62558	-42.99376	431.07382	-37.83915	950.91943	-319.71738	-117.47785	614.75391	-206.89030	38.07049	621.22101	-217.30147	-60.98727	460.66098	661.87225	86.29138	455.86801	653.23633	
2	0.010	-242.53371	147.11221	-79.09673	213.15111	59.15082	-168.07010	-252.10072	-52.48008	461.98126	240.43427	-42.87858	431.07095	-38.05591	951.24341	-319.99277	-118.79208	614.71771	-206.68309	37.05144	621.24030	-216.96353	-61.89063	460.87091	662.16766	85.05373	455.90494	653.34607	
3	0.020	-239.91167	137.43425	-77.84451	213.01855	59.57093	-167.91263	-252.15202	-52.60004	461.93951	240.36594	-42.83631	431.11404	-38.46392	951.56610	-320.75507	-120.32780	614.74561	-206.52039	35.48602	621.21906	-216.91353	-63.57013	461.36844	662.48737	83.71730	455.89563	653.51825	
4	0.030	-239.69705	127.12692	-75.55923	213.00671	59.26548	-168.07512	-252.18077	-52.67223	461.95874	240.35901	-42.72592	431.12039	-38.58719	951.98853	-321.20361	-121.38959	614.43915	-206.43788	33.87732	621.64258	-216.83287	-64.75180	460.94272	662.69751	82.25329	456.08139	653.70142	
5	0.040	-237.96124	115.40957	-73.43900	212.66092	59.17395	-168.30142	-252.28426	-52.81443	461.92059	240.30295	-42.56173	431.08734	-38.76489	952.35168	-321.45303	-122.95483	614.51978	-206.26509	32.66563	621.36353	-216.45680	-66.45237	461.09570	662.71783	80.78617	456.60553	654.15881	
6	0.050	-236.06065	104.50702	-71.23161	212.48306	59.43951	-168.29195	-252.36212	-52.97199	461.89172	240.27016	-42.45274	431.14954	-38.93628	952.68073	-321.73303	-124.41409	614.57855	-206.24377	31.89681	621.18903	-216.41635	-68.15750	461.35248	662.78998	79.33366	456.63702	654.32104	
7	0.060	-234.51669	93.96337	-68.97619	212.62846	59.51384	-168.17511	-252.41109	-53.02635	461.85864	240.26286	-42.35734	431.16101	-39.46377	953.05536	-322.51028	-126.02999	614.29065	-206.23096	30.43067	620.99695	-216.34831	-69.74265	461.50577	662.94739	77.26625	456.82639	654.28223	
8	0.070	-232.99969	82.99689	-67.58866	212.62648	59.52738	-168.14877	-252.43655	-53.11043	461.80338	240.20074	-42.26948	431.14496	-39.68018	953.54840	-323.09476	-127.51544	614.26422	-206.35851	28.87237	621.00836	-216.40869	-71.68526	461.76813	662.88116	75.85368	457.22543	654.46289	
9	0.080	-232.29791	73.31474	-66.13781	212.42955	59.66651	-168.13594	-252.52400	-53.19863	461.80765	240.12759	-42.22085	431.14563	-39.83197	953.92889	-323.53110	-129.08641	614.28082	-206.54573	27.06301	620.99585	-216.39760	-73.38126	461.63861	662.85071	74.08414	457.12500	654.31329	
10	0.090	-232.25008	63.05177	-65.43174	212.36705	59.87973	-168.05034	-252.62889	-53.25032	461.79935	240.06900	-42.21088	431.12384	-40.16937	954.14996	-324.12677	-131.01552	614.25763	-206.48532	25.01223	620.93011	-216.63179	-75.49339	461.70224	662.70172	71.84719	457.12759	654.10004	
11	0.100	-231.11412	52.77998	-65.16380	212.18539	59.95307	-168.08342	-252.66486	-53.29652	461.78644	239.97815	-42.20390	431.13504	-40.63648	954.43286	-324.71014	-132.86316	614.31824	-206.81526	23.21216	620.84711	-216.92064	-77.54124	461.71573	662.51111	69.88812	457.02325	653.78772	
12	0.110	-230.60728	42.30733	-64.95287	213.17737	60.85096	-167.79477	-252.79965	-53.32125	461.76688	239.91483	-42.20013	431.11557	-40.87394	954.62561	-325.08914	-135.08531	614.18335	-207.12064	21.10552	620.82587	-217.06125	-79.45817	461.78149	662.23822	67.95467	457.29947	653.75781	
13	0.120	-230.90213	39.73682	-65.24966	212.16492	59.94388	-168.09592	-252.83438	-53.42825	461.79797	239.81815	-42.16828	431.13440	-41.01723	954.87640	-325.72025	-137.22144	614.28204	-207.40428	18.88331	620.72180	-217.59364	-81.94838	461.76151	661.90955	65.64674	457.20236	653.38062	
14	0.130	-232.70772	39.86916	-64.76230	211.77020	60.53929	-168.73305	-253.10207	-53.86835	461.66193	239.67302	-42.16546	430.84396	-41.12496	955.04565	-326.00766	-139.72543	615.52820	-207.66350	16.56890	621.38818	-217.77563	-83.92527	461.72525	661.35925	63.40111	456.59991	652.77203	
15	0.140	-232.55266	39.59993	-64.88525	210.38123	61.43195	-168.57759	-253.80547	-54.85963	461.97040	238.19528	-41.13538	430.73773	-40.94709	955.26135	-326.40866	-142.18579	617.03613	-207.76250	14.28495	622.37103	-218.06850	-86.43392	461.89920	660.89728	61.16071	456.44507	651.97205	
16	0.150	-232.69652	39.61177	-64.85111	208.55577	61.84895	-169.19467	-254.46303	-55.02005	461.94138	237.10730	-40.97239	430.78979	-40.09852	955.99384	-326.23535	-144.20093	618.62012	-208.18723	11.96309	623.28711	-218.56844	-88.18344	462.69315	660.64734	59.19673	456.40009	651.59662	
17	0.160	-232.67409	39.56406	-65.03185	208.51535	61.97394	-168.59926	-254.46130	-54.89408	461.90945	236.96967	-40.88482	430.86554	-39.37941	956.62335	-326.40112	-146.36961	619.87512	-208.35130	9.72560	624.35516	-218.89056	-90.67864	463.33588	660.21716	56.71449	456.91299	651.28021	
18	0.170	-232.68726	39.61661	-65.16283	209.75784	62.98679	-168.32274	-254.52664	-54.90559	461.83636	237.08853	-40.25663	430.80753	-39.15598	957.01733	-326.93777	-148.11418	621.56830	-208.54787	8.28450	625.39276	-219.02046	-92.64375	464.43646	659.97339	54.61478	457.61758	650.91949	
19	0.180	-232.84216	39.51899	-65.51940	209.64467	63.01798	-168.43655	-254.60413	-54.94104	461.84784	236.75534	-40.40300	430.95151	-39.39574	957.58118	-327.75565	-149.43114	623.10919	-208.68777	6.83900	626.54010	-219.27176	-94.68520	465.64941	659.64832	52.83341	458.26624	650.50348	
20	0.190	-232.94878	39.59278	-65.85684	209.67719	63.03898	-168.29854	-254.63786	-55.11034	461.88464	236.61215	-40.34878	430.78653	-39.88713	958.18378	-328.52420	-150.65991	624.32715	-208.81891	5.65822	627.94489	-219.33070	-96.34385	466.52774	659.35406	51.01466	459.42834	650.61200	
21	0.200	-232.88942	39.44270	-66.08022	209.66777	63.13967	-168.61134	-254.73157	-55.23079	461.84811	236.53871	-40.22102	430.78986	-40.90289	958.69116	-329.39130	-151.52997	625.97449	-209.31355	4.70026	629.19226	-219.55295	-97.37437	467.47592	659.03442	49.29354	460.46738	650.47406	
22	0.210	-233.16104	39.39051	-66.16006	209.61119	63.16440	-168.62498	-254.82539	-55.29743	461.72784	236.36955	-40.28086	430.70935	-42.00899	959.54236	-330.51672	-152.40044	627.08472	-209.56943	3.83174	630.37506	-219.68805	-99.20911	469.05447	658.85046	48.49165	461.65054	650.26703	
23	0.220	-233.10558	39.38134	-66.25204	209.83041	63.32348	-168.63268	-254.84419	-55.40285	461.58588	236.38797	-40.09227	430.57822	-43.04572	960.16742	-331.28595	-153.45659	628.30170	-209.82863	2.72893	631.69391	-220.03482	-100.61182	470.18201	658.55487	46.87735	462.93417	650.08899	
24	0.230	-233.15057	39.29234	-66.34336	209.63373	63.33527	-168.94154	-254.85680	-55.45843	461.51315	236.42346	-39.87957	430.51917	-43.84644	960.98181	-332.23248	-154.10426	629.40924	-210.17647	2.07450	632.87262	-220.30440	-101.27647	471.24045	658.06421	45.72948	464.25049	649.70050	
